<svg xmlns="http://www.w3.org/2000/svg" viewBox="0 0 150 150"><defs><style>.a{fill:#fff;}.b{fill:#f69220;}</style></defs><path class="a" d="M27.31,84.06H12.72V69.3h14v1.49H14.28v4.7h8.66V77H14.28v5.6h13Z"/><path class="a" d="M46.87,84.06h-2L32.52,70.79V84.06H31V69.3h2L45.31,82.56V69.3h1.56Z"/><path class="a" d="M66.84,84.06H52.25V69.3h14v1.49H53.81v4.7h8.66V77H53.81v5.6h13Z"/><path class="a" d="M86.48,84.06H84.59l-4.66-6H72.05v6H70.49V69.3H81.75a4.613,4.613,0,0,1,3.35,1.2,4.322,4.322,0,0,1,1.23,3.24,4.069,4.069,0,0,1-1.12,3A5.14,5.14,0,0,1,82,78.09Zm-4.83-7.44a2.669,2.669,0,0,0,3-2.93q0-2.89-3.44-2.9H72.05v5.83Z"/><path class="a" d="M103,70.79H96V84.06H94.42V70.79h-7V69.3H103Z"/><path class="a" d="M120.2,84.06H105.61V69.3h14v1.49H107.17v4.7h8.66V77h-8.66v5.6h13Z"/><path class="a" d="M139.5,84.06h-1.93l-7.24-8.37-4.92,3.82v4.55h-1.56V69.3h1.56v8.43l10.92-8.43h2.32l-7.11,5.49Z"/><path class="b" d="M71.12,144.09a.651.651,0,0,0-.61-.64,68.6,68.6,0,0,1,0-136.9.651.651,0,0,0,.61-.64h0a.661.661,0,0,0-.669-.651H70.43a69.89,69.89,0,0,0,0,139.48.659.659,0,0,0,.689-.629v-.021Z"/><path class="b" d="M78.88,5.91h0a.651.651,0,0,0,.61.64,68.6,68.6,0,0,1,0,136.9.651.651,0,0,0-.61.64h0a.661.661,0,0,0,.669.651h.021a69.89,69.89,0,0,0,0-139.48.659.659,0,0,0-.689.629Z"/></svg>