<svg xmlns="http://www.w3.org/2000/svg" width="120.001" height="40" viewBox="0 0 120.001 40"><defs><style>.a{fill:#167cfb;}</style></defs><path d="M6409.982,17316.641v-7.727h.674l.108.73h.038a1.737,1.737,0,0,1,.668-.629,1.884,1.884,0,0,1,.886-.2,1.778,1.778,0,0,1,1.51.719,3.343,3.343,0,0,1,.538,2.031,3.4,3.4,0,0,1-.538,2.043,1.937,1.937,0,0,1-3.064-.035h-.061l.022.2c.021.25.038.477.038.676v2.191Zm1.157-6.645a2.4,2.4,0,0,0-.336,1.406v.168a2.846,2.846,0,0,0,.331,1.57,1.248,1.248,0,0,0,1.092.48,1.112,1.112,0,0,0,.983-.547,2.788,2.788,0,0,0,.353-1.516,2.666,2.666,0,0,0-.353-1.492,1.141,1.141,0,0,0-1-.516A1.229,1.229,0,0,0,6411.139,17310Zm-28.254,6.645v-7.727h.673l.108.73h.038a1.792,1.792,0,0,1,.674-.629,1.879,1.879,0,0,1,.88-.2,1.778,1.778,0,0,1,1.515.719,4.109,4.109,0,0,1,0,4.074,1.937,1.937,0,0,1-3.064-.035h-.054l.016.2a6.11,6.11,0,0,1,.038.676v2.191Zm1.156-6.645a2.442,2.442,0,0,0-.337,1.406v.168a2.836,2.836,0,0,0,.337,1.57,1.235,1.235,0,0,0,1.092.48,1.1,1.1,0,0,0,.978-.547,2.746,2.746,0,0,0,.353-1.516,2.626,2.626,0,0,0-.353-1.492,1.133,1.133,0,0,0-.994-.516A1.246,1.246,0,0,0,6384.041,17310Zm83.5,4.016a2.181,2.181,0,0,1-.8-.977,3.524,3.524,0,0,1-.283-1.465,3.063,3.063,0,0,1,.609-2.027,2.121,2.121,0,0,1,1.711-.723,2.08,2.08,0,0,1,1.673.734,3.621,3.621,0,0,1,0,4.059,2.12,2.12,0,0,1-1.711.734A2.215,2.215,0,0,1,6467.541,17314.012Zm-.244-2.441a2.608,2.608,0,0,0,.375,1.527,1.395,1.395,0,0,0,2.178,0,2.611,2.611,0,0,0,.375-1.527,2.562,2.562,0,0,0-.375-1.516,1.288,1.288,0,0,0-1.1-.5C6467.785,17309.551,6467.3,17310.223,6467.3,17311.57Zm-22.883,2.063a3.033,3.033,0,0,1-.6-2.023,3.129,3.129,0,0,1,.608-2.066,2.127,2.127,0,0,1,1.728-.723,3.211,3.211,0,0,1,.722.078,2.2,2.2,0,0,1,.586.207l-.25.727a2.983,2.983,0,0,0-1.075-.254,1.274,1.274,0,0,0-1.114.508,2.635,2.635,0,0,0-.358,1.516,2.578,2.578,0,0,0,.358,1.48,1.214,1.214,0,0,0,1.065.508,2.908,2.908,0,0,0,1.293-.309v.777a2.611,2.611,0,0,1-1.287.289A2.076,2.076,0,0,1,6444.413,17313.633Zm-12.868,0a3.033,3.033,0,0,1-.6-2.023,3.129,3.129,0,0,1,.608-2.066,2.127,2.127,0,0,1,1.728-.723,3.218,3.218,0,0,1,.723.078,2.232,2.232,0,0,1,.587.207l-.251.727a2.98,2.98,0,0,0-1.075-.254,1.274,1.274,0,0,0-1.114.508,2.631,2.631,0,0,0-.359,1.516,2.574,2.574,0,0,0,.359,1.48,1.213,1.213,0,0,0,1.064.508,2.908,2.908,0,0,0,1.293-.309v.777a2.609,2.609,0,0,1-1.287.289A2.077,2.077,0,0,1,6431.545,17313.633Zm-26.838-.156a4.226,4.226,0,0,1-.6-2.434,6.023,6.023,0,0,1,.5-2.742,2.313,2.313,0,0,1,1.58-1.219c.679-.145,1.434-.289,2.265-.441l.141.762-.543.1c-.7.121-1.265.23-1.694.324a1.485,1.485,0,0,0-.983.711,3.411,3.411,0,0,0-.375,1.613h.06a1.849,1.849,0,0,1,.7-.625,1.871,1.871,0,0,1,.934-.238,1.77,1.77,0,0,1,1.439.629,2.745,2.745,0,0,1,.516,1.77,2.925,2.925,0,0,1-.6,1.969,2.128,2.128,0,0,1-1.679.7A1.916,1.916,0,0,1,6404.708,17313.477Zm1.212-3.316a2.129,2.129,0,0,0-.565.383,2.073,2.073,0,0,0-.408.523c0,1.7.494,2.559,1.488,2.559.9,0,1.353-.621,1.353-1.855q0-1.758-1.222-1.758A1.447,1.447,0,0,0,6405.919,17310.16Zm-6.469,3.852a2.185,2.185,0,0,1-.809-.977,3.6,3.6,0,0,1-.283-1.465,3.061,3.061,0,0,1,.614-2.027,2.105,2.105,0,0,1,1.71-.723,2.081,2.081,0,0,1,1.673.734,3.637,3.637,0,0,1,0,4.059,2.1,2.1,0,0,1-1.706.734A2.2,2.2,0,0,1,6399.45,17314.012Zm-.245-2.441a2.608,2.608,0,0,0,.375,1.527,1.395,1.395,0,0,0,2.178,0,2.611,2.611,0,0,0,.375-1.527,2.562,2.562,0,0,0-.375-1.516,1.3,1.3,0,0,0-1.1-.5Q6399.206,17309.551,6399.206,17311.57Zm-5.7,2.43v-.789a3.766,3.766,0,0,0,1.694.418,1.8,1.8,0,0,0,.989-.227.756.756,0,0,0,.342-.676.741.741,0,0,0-.348-.676,2.041,2.041,0,0,0-1.076-.227h-.673v-.707h.543c.939,0,1.412-.273,1.412-.82,0-.5-.375-.758-1.13-.758a3,3,0,0,0-.667.078,3.874,3.874,0,0,0-.745.266l-.288-.7a4.034,4.034,0,0,1,1.744-.367,2.231,2.231,0,0,1,1.374.371,1.218,1.218,0,0,1,.495,1.031,1.145,1.145,0,0,1-.935,1.18v.035a1.666,1.666,0,0,1,.837.508,1.271,1.271,0,0,1,.266.832,1.359,1.359,0,0,1-.565,1.152,2.607,2.607,0,0,1-1.564.418A3.451,3.451,0,0,1,6393.5,17314Zm-26-.523a4.222,4.222,0,0,1-.6-2.434,6.1,6.1,0,0,1,.5-2.742,2.313,2.313,0,0,1,1.581-1.219c.678-.145,1.433-.289,2.265-.441l.141.762-.538.1c-.706.121-1.27.23-1.7.324a1.482,1.482,0,0,0-.983.711,3.411,3.411,0,0,0-.375,1.613h.06a1.852,1.852,0,0,1,.7-.625,1.873,1.873,0,0,1,.935-.238,1.77,1.77,0,0,1,1.439.629,2.745,2.745,0,0,1,.516,1.77,2.925,2.925,0,0,1-.6,1.969,2.112,2.112,0,0,1-1.678.7A1.915,1.915,0,0,1,6367.5,17313.477Zm1.211-3.316a2.118,2.118,0,0,0-.56.383,2,2,0,0,0-.412.523c0,1.7.494,2.559,1.487,2.559.9,0,1.353-.621,1.353-1.855q0-1.758-1.222-1.758A1.465,1.465,0,0,0,6368.712,17310.16Zm-6.468,3.852a2.169,2.169,0,0,1-.8-.977,3.517,3.517,0,0,1-.282-1.465,3.063,3.063,0,0,1,.608-2.027,2.115,2.115,0,0,1,1.711-.723,2.081,2.081,0,0,1,1.673.734,3.646,3.646,0,0,1,.005,4.059,2.121,2.121,0,0,1-1.71.734A2.21,2.21,0,0,1,6362.244,17314.012Zm-.246-2.441a2.611,2.611,0,0,0,.375,1.527,1.395,1.395,0,0,0,2.178,0,2.608,2.608,0,0,0,.375-1.527,2.559,2.559,0,0,0-.375-1.516,1.285,1.285,0,0,0-1.1-.5Q6362,17309.551,6362,17311.57Zm89.464,2.359a1.568,1.568,0,0,1-.418-1.164c0-1.082.8-1.645,2.4-1.7l.843-.035v-.316a1.387,1.387,0,0,0-.245-.9.98.98,0,0,0-.788-.289,2.143,2.143,0,0,0-.744.133,5.027,5.027,0,0,0-.663.273l-.25-.648a3.448,3.448,0,0,1,.82-.34,3.491,3.491,0,0,1,.886-.121,1.877,1.877,0,0,1,1.347.43,1.821,1.821,0,0,1,.44,1.355v3.633h-.6l-.158-.754h-.038a2.133,2.133,0,0,1-.745.68,2.232,2.232,0,0,1-.933.172A1.578,1.578,0,0,1,6451.463,17313.93Zm2.081-2.254a2.578,2.578,0,0,0-1.254.285.913.913,0,0,0-.392.816.833.833,0,0,0,.239.637.921.921,0,0,0,.667.227,1.441,1.441,0,0,0,1.081-.4,1.511,1.511,0,0,0,.4-1.125v-.484Zm-37.684,2.254a1.546,1.546,0,0,1-.419-1.164c0-1.082.8-1.645,2.4-1.7l.847-.035v-.316a1.386,1.386,0,0,0-.25-.9.979.979,0,0,0-.788-.289,2.149,2.149,0,0,0-.744.133,5.013,5.013,0,0,0-.662.273l-.251-.648a3.577,3.577,0,0,1,.821-.34,3.484,3.484,0,0,1,.885-.121,1.87,1.87,0,0,1,1.347.43,1.824,1.824,0,0,1,.44,1.355v3.633h-.6l-.158-.754h-.039a2.139,2.139,0,0,1-.744.68,2.238,2.238,0,0,1-.935.172A1.553,1.553,0,0,1,6415.859,17313.93Zm2.074-2.254a2.545,2.545,0,0,0-1.25.285.9.9,0,0,0-.4.816.831.831,0,0,0,.238.637.935.935,0,0,0,.674.227,1.44,1.44,0,0,0,1.076-.4,1.514,1.514,0,0,0,.4-1.125v-.484Zm-29.173,2.254a1.569,1.569,0,0,1-.418-1.164c0-1.082.8-1.645,2.4-1.7l.847-.035v-.316a1.381,1.381,0,0,0-.245-.9.993.993,0,0,0-.788-.289,2.157,2.157,0,0,0-.75.133,5.364,5.364,0,0,0-.662.273l-.25-.648a3.484,3.484,0,0,1,.826-.34,3.447,3.447,0,0,1,.88-.121,1.872,1.872,0,0,1,1.347.43,1.827,1.827,0,0,1,.44,1.355v3.633h-.6l-.157-.754h-.033a2.188,2.188,0,0,1-.745.68,2.253,2.253,0,0,1-.935.172A1.56,1.56,0,0,1,6388.761,17313.93Zm2.08-2.254a2.553,2.553,0,0,0-1.255.285.917.917,0,0,0-.4.816.833.833,0,0,0,.239.637.943.943,0,0,0,.673.227,1.459,1.459,0,0,0,1.081-.4,1.53,1.53,0,0,0,.391-1.125v-.484Zm72.447,2.574v-4.6h-1.613v-.738h4.051v.738H6464.1v4.6Zm-6.61,0v-5.336h2.238c1.244,0,1.869.449,1.869,1.348a1.038,1.038,0,0,1-.277.781,1.389,1.389,0,0,1-.777.363v.051a1.491,1.491,0,0,1,.923.4,1.158,1.158,0,0,1,.288.824,1.382,1.382,0,0,1-.522,1.164,2.429,2.429,0,0,1-1.5.4Zm.814-.707h1.364c.842,0,1.266-.3,1.266-.906a.646.646,0,0,0-.326-.625,2.029,2.029,0,0,0-.961-.176h-1.342Zm0-2.437h1.255a1.946,1.946,0,0,0,.951-.176.643.643,0,0,0,.282-.59.555.555,0,0,0-.266-.531,1.587,1.587,0,0,0-.819-.164h-1.4Zm-18.646,3.145v-2.121h-1.216l-1.282,2.121h-.95l1.422-2.238a1.531,1.531,0,0,1-.869-.555,1.566,1.566,0,0,1-.293-.969,1.464,1.464,0,0,1,.467-1.156,1.9,1.9,0,0,1,1.3-.418h2.239v5.336Zm-2.129-4.391a.78.78,0,0,0-.271.633c0,.605.407.91,1.223.91h1.178v-1.758h-1.336A1.272,1.272,0,0,0,6436.716,17309.859Zm-11.091,4.391v-5.336h.815v2.191h1.488c1.292,0,1.944.5,1.944,1.508a1.479,1.479,0,0,1-.505,1.215,2.254,2.254,0,0,1-1.477.422Zm.815-.707h1.412a1.545,1.545,0,0,0,.891-.223.753.753,0,0,0,.309-.656.715.715,0,0,0-.282-.629,1.634,1.634,0,0,0-.939-.2h-1.391Zm-4.351.707v-4.6h-1.613v-.738h4.052v.738h-1.63v4.6Zm-44.452,0v-5.336h.814v5.336Zm-4.846,0v-5.336h.821v2.191h1.292a2.274,2.274,0,0,1,1.44.379,1.373,1.373,0,0,1,.461,1.129,1.5,1.5,0,0,1-.489,1.223,2.183,2.183,0,0,1-1.445.414Zm.821-.707h1.179q1.206,0,1.206-.879a.706.706,0,0,0-.271-.629,1.564,1.564,0,0,0-.923-.2h-1.189Zm-15.626.707v-4.6h-1.607v-.738h4.051v.738H6358.8v4.6Zm-3.509,0v-2.375a3.577,3.577,0,0,1-.9.477,2.672,2.672,0,0,1-.89.137,1.623,1.623,0,0,1-1.178-.418,1.527,1.527,0,0,1-.435-1.148v-2.008h.82v1.945c0,.609.321.91.961.91a2.242,2.242,0,0,0,.793-.137,3.548,3.548,0,0,0,.831-.434v-2.285h.821v5.336Z" transform="translate(-6351.07 -17278.641)"/><g transform="translate(-517.871 -203.741)"><path class="a" d="M705.88,215.764a2.144,2.144,0,0,1,1.753-2.109,10.223,10.223,0,0,0-1.447-3.486,2.143,2.143,0,0,1-2.981-2.978,10.125,10.125,0,0,0-3.489-1.45,2.143,2.143,0,0,1-4.215,0,10.245,10.245,0,0,0-3.489,1.45,2.142,2.142,0,0,1-2.978,2.978,10.221,10.221,0,0,0-1.447,3.486,2.145,2.145,0,0,1,0,4.218,10.249,10.249,0,0,0,1.45,3.489,2.139,2.139,0,0,1,2.976,2.975,10.247,10.247,0,0,0,3.489,1.45,2.143,2.143,0,0,1,4.215,0,10.126,10.126,0,0,0,3.489-1.45,2.141,2.141,0,0,1,2.978-2.975,10.247,10.247,0,0,0,1.45-3.489A2.144,2.144,0,0,1,705.88,215.764Zm-8.27,5.091a5.091,5.091,0,1,1,5.091-5.091A5.091,5.091,0,0,1,697.61,220.855Z" transform="translate(-149.493 0)"/><path d="M530.672,215.9v4.335a8.513,8.513,0,0,0-5.051-1.4h-.3c-5.5,0-7.451,3.92-7.451,7.278v.422c0,3.38,1.965,7.328,7.5,7.328h.325a7.491,7.491,0,0,0,5-1.635v1.361h5.469V215.9Zm-3.453,13.661h-.274c-2.621,0-3.949-1.078-3.949-3.2v-.076c0-2.094,1.366-3.2,3.949-3.2h.274c1.694,0,3.5.841,3.5,3.2v.076A3.145,3.145,0,0,1,527.219,229.564Z" transform="translate(0 -8.95)"/><path d="M880.223,225.647l6.091-6.539h-6.48l-4.484,5.027V215.9h-5.495v17.685h5.495v-5.865l4.929,5.865h6.611Z" transform="translate(-310.043 -8.952)"/><rect width="6.443" height="5.473" transform="translate(577.478 219.165)"/><path d="M1103.277,242.795v7.354a2.923,2.923,0,0,1-3.129,2.977,2.618,2.618,0,0,1-2.93-2.8v-7.527h-5.495v9.3c0,2.651,1.918,5.5,6.128,5.5h.227a7.659,7.659,0,0,0,5.249-2.014v1.693h5.444v-14.48Z" transform="translate(-505.474 -32.639)"/><path d="M1269.348,244.556c-.175-3.06-2.585-4.484-7.586-4.484h-.775c-6.678,0-7.675,3.076-7.675,4.909v.362h5.621v-.315c0-1,1.349-1.207,2.479-1.207,2.578,0,2.578.622,2.578,1.034,0,.316-.037.513-.758.584l-3.793.324c-4.5.384-6.5,1.8-6.5,4.58v.1c0,2.276,1.518,4.707,5.778,4.707h.4a7.154,7.154,0,0,0,5.207-1.9,2.551,2.551,0,0,0,2.453,1.624h2.574Zm-5.359,3.749v.642c0,.978-.95,2.53-3.5,2.53-1.332,0-2.007-.407-2.007-1.21v-.047c0-.667.428-.977,2.829-1.387C1261.912,248.737,1263.208,248.518,1263.989,248.305Z" transform="translate(-647.478 -30.24)"/></g></svg>